<svg width="701" height="537" viewBox="0 0 701 537" fill="none" xmlns="http://www.w3.org/2000/svg">
<path d="M670.421 92.8686H634.733V115.266H670.421C676.454 115.266 678.728 121.794 678.728 127.827V423.302C678.728 453.471 656.817 476.026 626.648 476.026H407.776C389.673 476.026 372.362 492.746 372.362 510.85V514.421H328.367V510.85C328.367 492.746 316.445 476.026 298.341 476.026H79.4705C49.301 476.026 22.0009 453.471 22.0009 423.302V127.827C22.0009 121.794 29.664 115.266 35.697 115.266H65.996V92.8686H35.697C17.5934 92.8686 0.40332 109.723 0.40332 127.827V423.302C0.40332 465.543 37.2304 497.623 79.4705 497.623H298.341C304.374 497.623 306.769 504.817 306.769 510.85V516.321C306.769 528.392 319.1 536.018 331.172 536.018H374.946C387.017 536.018 393.96 528.392 393.96 516.321V510.85C393.96 504.817 401.744 497.623 407.777 497.623H626.647C668.888 497.623 700.325 465.542 700.325 423.302V127.827C700.325 109.724 688.525 92.8686 670.421 92.8686Z" fill="#5956EB"/>
<path d="M164.385 92.8686H295.57V115.266H164.385V92.8686ZM164.385 142.463H295.57V164.061H164.385V142.463ZM164.385 191.258H295.57V213.655H164.385V191.258ZM405.158 92.8686H536.343V115.266H405.158V92.8686ZM405.158 142.463H536.343V164.061H405.158V142.463ZM405.158 191.258H536.343V213.655H405.158V191.258Z" fill="#5956EB"/>
<path d="M610.232 49.6735H596.337V45.7507C596.337 21.6142 579.651 0.0790245 555.515 0.0790253H424.192C393.779 0.0790253 367.238 16.7428 353.059 41.3816C338.88 16.7428 312.339 0.0790253 281.926 0.0790253H150.604C126.468 0.0790253 104.393 21.6134 104.393 45.7507V49.6735H95.8871C74.7694 49.6735 54.7981 70.8599 54.7981 94.9964V390.471C54.7981 420.641 80.904 443.229 109.566 443.229H309.286C327.389 443.229 342.116 459.228 342.116 476.026H364.003C364.003 459.228 378.73 443.229 396.834 443.229H596.553C625.216 443.229 645.933 420.641 645.933 390.471V94.9964C645.931 70.8599 631.349 49.6735 610.232 49.6735ZM424.192 21.6766H555.514C567.585 21.6766 574.739 33.6793 574.739 45.7507V357.641C574.739 369.711 567.585 377.637 555.514 377.637H424.192C400.4 377.637 377.961 389.764 361.163 405.99V84.0528C361.163 50.8645 391.003 21.6766 424.192 21.6766ZM125.989 45.7507C125.989 33.6801 138.533 21.6766 150.603 21.6766H281.925C315.114 21.6766 339.565 50.8637 339.565 84.0528V405.861C328.367 389.675 305.683 377.637 281.925 377.637H150.604C138.534 377.637 125.99 369.712 125.99 357.641V45.7507H125.989ZM109.566 421.632C92.9738 421.632 76.3949 408.575 76.3949 390.471V94.9964C76.3949 83.1337 86.9889 71.2711 95.8863 71.2711H104.392V357.641C104.392 381.777 126.467 399.234 150.603 399.234H281.925C302.811 399.234 321.231 410.192 332.029 426.391C325.092 423.203 317.405 421.632 309.284 421.632H109.566ZM623.534 390.471C623.534 408.575 613.144 421.632 596.552 421.632H396.833C388.712 421.632 381.025 423.204 374.087 426.391C384.884 410.192 403.305 399.234 424.191 399.234H555.513C579.65 399.234 596.336 381.777 596.336 357.641V71.2711H610.23C619.127 71.2711 623.533 83.1337 623.533 94.9964V390.471H623.534Z" fill="#5E5E5E"/>
<path d="M295.57 295.502C295.57 301.546 290.671 306.446 284.627 306.446H175.329C169.284 306.446 164.385 301.546 164.385 295.502V251.796C164.385 245.752 169.284 240.853 175.329 240.853H284.627C290.671 240.853 295.57 245.752 295.57 251.796V295.502ZM536.343 295.502C536.343 301.546 531.444 306.446 525.4 306.446H416.102C410.057 306.446 405.158 301.546 405.158 295.502V251.796C405.158 245.752 410.057 240.853 416.102 240.853H525.4C531.444 240.853 536.343 245.752 536.343 251.796V295.502Z" fill="#E0E0E0"/>
</svg>
